<svg width="2337" height="496" viewBox="0 0 2337 496" fill="none" xmlns="http://www.w3.org/2000/svg">
<g opacity="0.3">
<path opacity="0.3" d="M2336.2 1.5L2189.8 1.3L2121.6 1.4L1918.5 2C1902.5 2 1833.8 1.8 1827.4 2C1821 2.2 1686.6 2 1669.2 2C1651.8 2 1352.7 2.4 1341.8 2.2C1330.9 2 1239.8 2.2 1227 2.2C1214.3 2.2 1033.5 2.6 1008.8 2.4C984.1 2.2 809.4 2.4 809.4 2.4H485.9L415 2.7C295.7 3.1 230.3 3.3 218.8 3.2C201.6 3 71.7 3.2 60.5 3.2L0 3V0.9L183.9 0.6H485.9L611.1 0.9L890.8 0.6C897.7 0.6 1162 0.1 1168.2 0.4C1174.3 0.6 1378 0.4 1378 0.4L1654.5 0.2L1890.1 0H2336.2V1.5Z" fill="black"/>
<path opacity="0.3" d="M327.5 495.4L401.6 427.1C406.7 422.3 449.5 381.4 453.4 377.9L478.5 354.5L511 324.1L560.6 276.9C562.6 275 595.3 243.5 600.1 239.2C604.9 234.9 623.9 217 627.8 213.3C631.7 209.6 662.9 180.4 669.9 173.5C676.9 166.6 701.7 143.2 706.6 138.6L722.6 123.5L744.7 102.6L774.1 74.4002L816.5 34.3002L843.1 9.5002L850.3 2.7002L846.9 2.8002L783.9 62.5002C776.4 69.5002 748.8 96.2002 744.5 100.2C740.3 104.2 731.9 112.6 723.9 119.7C715.9 126.8 695.6 146.7 692.5 149.6L672.9 167.9C672 168.7 644.4 195.4 636.4 202.7C595.552 240.77 554.951 279.104 514.6 317.7L436.8 391C419.9 406.6 407.8 418 400.3 425C389.2 435.5 333 486.9 330.4 489.3L323.8 495.6L327.5 495.4Z" fill="black"/>
<path opacity="0.3" d="M0 54.8L146.4 55.1L214.6 55L417.7 54.4C433.7 54.4 502.4 54.6 508.8 54.4C515.2 54.2 649.6 54.4 667 54.4C684.4 54.4 983.4 53.9 994.3 54.2C1005.2 54.4 1096.3 54.2 1109.1 54.2C1121.8 54.2 1302.6 53.8 1327.3 54C1352.1 54.2 1526.7 54 1526.7 54H1850.2L1921.1 53.6C2040.4 53.2 2105.8 53 2117.3 53.1C2134.5 53.3 2264.4 53.1 2275.6 53.1L2336.1 53.3V55.7L2152.2 56H1850.2L1725 55.7L1445.3 56C1438.4 56 1174.1 56.5 1167.9 56.3C1161.8 56 958.1 56.3 958.1 56.3L681.8 56.4L446.2 56.6H0.1L0 54.8ZM1 21.4L147.3 21.6L215.5 21.5L418.5 21H667.8C685.2 21 984.1 20.6 994.9 20.8C1005.7 21 1096.9 20.8 1109.6 20.8C1122.3 20.8 1303 20.5 1327.7 20.6C1352.5 20.8 1527 20.6 1527 20.6H1850.4L1921.3 20.3C2040.6 20 2105.9 19.8 2117.4 19.9H2275.6L2336.1 20.1V21.9L2152.3 22.2H1850.4L1725.3 21.9L1445.7 22.2C1438.8 22.2 1174.6 22.6 1168.5 22.4C1162.4 22.2 958.8 22.4 958.8 22.4L682.4 22.6L446.9 22.8H0.9L1 21.4ZM1.3 285.5L147.6 286.2L215.8 286.3H418.9C434.8 286.3 503.5 286.7 510 286.6C516.5 286.5 650.7 287 668.1 287.1C685.5 287.2 984.3 287.5 995.2 287.8C1006 288.1 1097.2 288.1 1109.9 288.1C1249.03 288.107 1388.17 288.44 1527.3 289.1L1850.6 290L1921.5 289.8C2040.8 289.7 2106.2 289.8 2117.6 289.9C2134.7 290.1 2264.6 290.3 2275.8 290.4L2336.4 290.8V293L2152.1 292.9L1850.3 292L1725.3 291.3L1445.8 290.8C1438.9 290.8 1174.7 290.5 1168.6 290.2C1162.5 289.9 958.9 289.6 958.9 289.6L682.5 289L447.1 288.5L153.4 287.6L1.3 287.2V285.5V285.5ZM0.2 96.7C0.7 101 531.6 96.7 619.7 96.7L1074.3 97.1C1122.4 97.1 1242.2 96.7 1242.2 96.7C1242.2 96.7 1618.6 96.1 1660.4 96.4C1702.3 96.7 2024.9 96.7 2043.1 96.4C2140.77 96.0092 2238.43 96.1092 2336.1 96.7V94.1C2266 93.9 2206.4 94 2166.9 94.3C2107.7 94.6 1775.7 94.9 1750.3 94.9L1433.5 94.6L1345.7 94.9L1148.2 94.6H1011.3L720.6 94.8C682.1 94.8 593.8 94.8 533 94.5C472.2 94.2 345.1 94.2 304.2 94.2H0.2V96.7ZM2336 176.5L2203.2 175.9H2141.3L1956.9 176C1942.4 176 1880 175.6 1874.2 175.8C1868.4 176 1746.4 175.4 1730.6 175.4C1714.8 175.4 1443.4 175.1 1433.6 174.8C1423.8 174.5 1341 174.5 1329.5 174.5C1318 174.5 1153.9 174.4 1131.4 174.2C1109 173.9 950.4 173.7 950.4 173.7L656.8 172.9L592.4 173.1C485.133 173.36 377.866 173.227 270.6 172.7C263.8 172.7 30.1 172.6 0.3 172.3L0.6 170L383 170.1L657.1 170.9L770.7 171.5L1024.6 171.9C1030.9 171.9 1270.8 172.1 1276.4 172.4C1281.9 172.7 1466.8 172.9 1466.8 172.9C1621.73 173.344 1776.67 173.644 1931.6 173.8L2198.4 174.5L2336.6 174.9C2336 176 2336 176.5 2336 176.5V176.5Z" fill="black"/>
<path opacity="0.3" d="M1580.6 1.4002L1610.4 36.0002C1616.3 42.7002 1639.3 69.9002 1640.9 71.7002L1655.8 89.0002L1682.4 119.5L1705.8 146.4C1708 148.9 1744.5 191.4 1748.9 196.3C1774.77 225.695 1800.38 255.33 1825.7 285.2L1864.8 330.6L1900.8 371.7L1950.6 429.2L1982.7 466.5L2006.2 493.6C2006.6 494.1 2008.3 494.4 2011.2 494.5L1966 442.7C1958.68 434.473 1951.45 426.172 1944.3 417.8L1912.2 380.5L1882.9 347.2C1880.3 344.3 1837.8 295.2 1835.9 293.4C1834 291.6 1799.1 250.8 1796.6 248C1794.2 245.2 1764.1 211.1 1762.7 209.3C1732.6 174.136 1702.23 139.201 1671.6 104.5L1623.9 49.1002L1597.7 18.7002L1581.8 0.500195L1580.6 1.4002V1.4002ZM1774 1.8002L1807.5 28.6002C1814.1 33.8002 1840 55.0002 1841.8 56.4002L1858.5 69.8002C1877.21 84.5649 1895.94 99.2983 1914.7 114C1917.2 115.9 1958.2 149 1963.2 152.6C1968.1 156.3 2007.5 187.5 2008.7 188.5L2049.5 221.5L2093.4 256.7L2133.8 288.4L2189.8 333L2225.9 361.9L2336.1 449.3V444.5L2206.9 342.1C2194.9 332.8 2186.8 326.4 2182.5 322.9C2170.51 313.182 2158.47 303.516 2146.4 293.9L2113.5 268.2C2110.6 265.9 2062.8 228 2060.8 226.7C2058.8 225.4 2019.4 193.7 2016.7 191.6C2014 189.5 1980.2 163.2 1978.6 161.8C1944.82 134.363 1910.72 107.328 1876.3 80.7002L1822.6 37.7002L1793.1 14.2002L1775.3 0.200195L1774 1.8002ZM652 2.8002L618.1 29.1002L583.4 56.3002L566.5 69.5002L536.3 92.7002L509.7 113.1L460.8 151.1C455.8 154.8 416.1 185.4 414.8 186.4C413.6 187.4 376.3 216.7 373.5 218.7L329.1 253.3L288.4 284.5L231.9 328.3L195.4 356.7L168.8 377.3C168.3 377.7 23.4 496 20.5 495.5L215 337.7L239.6 318.8C243.9 315.3 256.1 305.9 276.1 290.4L309.2 265.1C312.1 262.9 360.4 225.5 362.4 224.2C364.4 222.9 404.2 191.8 407 189.7L445.4 160.4C479.685 133.609 514.119 107.009 548.7 80.6002L602.9 38.4002C618.779 26.03 634.712 13.7299 650.7 1.5002L652 2.8002ZM1375.8 1.4002L1387.7 32.3002L1393.6 46.7002L1411.3 89.7002C1412.6 93.1002 1418.1 107.6 1418.9 109C1423.43 120.114 1427.83 131.282 1432.1 142.5C1433.6 146.2 1459.1 209.5 1459.7 211.7C1460.3 214 1468.2 233.3 1469.3 236C1470.4 238.7 1486 277 1487.8 282.2C1502.32 319.073 1516.85 355.939 1531.4 392.8L1537.8 407.8C1548.3 433.1 1554 446.9 1554.8 449.3C1556 452.9 1567.1 480.4 1568 482.8L1572.8 495.6L1569.9 495.3L1554.1 456.4L1528.9 392.5L1518.9 366.1L1495.1 306.9C1494.5 305.4 1471.8 249.5 1471.6 248.2C1471.4 246.9 1454.1 203.8 1454.1 203.8L1430.7 145.3L1410.8 95.5002L1386.3 33.4002L1373.6 1.2002L1375.8 1.4002V1.4002ZM1180.8 495.5L1180.7 368.8L1181.1 271.3C1181.1 260.9 1180.7 235.3 1180.7 235.3C1180.7 235.3 1180.1 154.6 1180.4 145.6C1180.7 136.6 1180.7 67.5002 1180.4 63.6002C1180.01 42.6674 1180.11 21.7283 1180.7 0.800195L1178 1.8002C1177.8 16.8002 1177.8 28.6002 1178 37.0002C1178.4 49.7002 1178.6 120.9 1178.6 126.3L1178.3 194.2L1178.6 213L1178.3 255.3V284.6L1178.6 346.9C1178.6 355.1 1178.6 374.1 1178.3 387.1C1178 400.1 1178 427.4 1178 436.1V473.5L1178.1 495.2C1179.1 495.5 1180.2 495.5 1180.8 495.5V495.5ZM758 495.5C759.1 495.5 814 381.9 823 363.3L869.8 267.9C874.7 257.8 886.6 232.3 886.6 232.3C886.6 232.3 924.5 152.6 929.1 144C933.6 135.4 966.6 67.5002 968.2 63.4002C977.753 42.6851 987.823 22.2121 998.4 2.0002L995.8 1.1002C988.4 15.7002 982.8 27.2002 979 35.7002C973.2 48.4002 939.5 118.5 936.9 123.9L904.3 190.3L895.6 209L875.2 250.3L861.2 279.1L831.8 340.6C825.464 353.731 818.997 366.798 812.4 379.8C804.419 395.744 796.552 411.744 788.8 427.8L771 464.5L755.3 495.5H758Z" fill="black"/>
</g>
</svg>
